<svg id="esvgW8XftAk1" xmlns="http://www.w3.org/2000/svg" xmlns:xlink="http://www.w3.org/1999/xlink" viewBox="0 0 300 300" shape-rendering="geometricPrecision" text-rendering="geometricPrecision" project-id="8bfee34ecc234c479ef6d91ed0ef5b57" export-id="7ff6cd54b7dc447fa42053d9a0b5f2fe" cached="false"><rect width="280.3574" height="279.500038" rx="0" ry="0" transform="translate(9.107629 10.249981)" fill="#f3b6a4" stroke-width="0"/><g transform="matrix(.460494 0 0 0.569994 32.11346-35.657964)"><path d="M360.819,282.016c-11.672-.016-22.359,4.75-29.984,12.406-7.656,7.625-12.422,18.313-12.422,29.984.016,23.406,18.969,42.375,42.406,42.375c23.422,0,42.375-18.984,42.375-42.375.016-11.672-4.75-22.359-12.391-29.984-7.64-7.656-18.328-12.422-29.984-12.406Zm0,63.468c-11.672-.016-21.078-9.453-21.094-21.078c0-11.672,9.406-21.094,21.094-21.094c11.656,0,21.078,9.422,21.078,21.094-.016,11.625-9.438,21.063-21.078,21.078Z"/><path d="M126.616,282.016c-11.688-.016-22.344,4.75-29.984,12.406-7.656,7.625-12.406,18.313-12.406,29.984.016,23.391,18.953,42.375,42.391,42.375c23.422,0,42.391-18.969,42.391-42.375-.002-23.453-18.986-42.39-42.392-42.39Zm0,63.468c-11.672-.016-21.063-9.453-21.078-21.078c0-11.672,9.406-21.094,21.078-21.094c11.656.016,21.078,9.422,21.094,21.094-.016,11.625-9.454,21.063-21.094,21.078Z"/><path d="M507.976,226.172c-3.25-3.781-7.984-5.984-12.953-5.984h-104.11c-6.547,0-12.719-3.016-16.734-8.156l-45.875-58.656c-4.031-5.141-10.203-8.156-16.734-8.156h-166.236c-7.609,0-14.625,4.078-18.422,10.656L89.959,220.189h-72.968c-5.016,0-9.797,2.219-13.016,6.063s-4.594,8.938-3.719,13.859l6.969,64.5c1.172,10.766,10.234,18.953,21.078,18.969l47.719.109v-14.984l-47.672-.109c-3.203-.016-5.875-2.406-6.219-5.594l-7.125-65.484.453-1.641l1.531-.688h72.969c5.375,0,10.313-2.875,13.016-7.531l36.938-64.297c1.109-1.953,3.188-3.141,5.422-3.141h166.234c1.891,0,3.75.891,4.922,2.391l45.875,58.688c6.938,8.813,17.328,13.891,28.547,13.891h104.11l1.531.688.516.672.172-.297-17.625,68.688c-.672,2.766-3.188,4.703-6.063,4.703l-62.172-.125v14.981l62.141.141c9.734,0,18.203-6.563,20.625-15.984l17.641-68.734c.78-4.923-.595-9.954-3.813-13.751Z"/><polygon points="177.209,323.891 310.225,324.281 310.225,309.297 177.209,308.922"/></g><rect width="28.138625" height="93.316868" rx="0" ry="0" transform="matrix(1.10901 0 0 1 39.127899 183.029968)" stroke="#000"/><rect width="43.787182" height="28.712883" rx="0" ry="0" transform="matrix(1.480523 0 0 0.910125 64.792648 250.214524)" stroke-width="0"/><line x1="-2.471326" y1="-46.658433" x2="2.471327" y2="46.658434" transform="matrix(11.392749 0 0 1 170.106099 229.688403)" fill="#3f5787" stroke="#000" stroke-width="3"/><line x1="-2.471326" y1="-46.658433" x2="2.471327" y2="46.658434" transform="matrix(11.392749 0 0-1 226.416504 229.688403)" fill="none" stroke="#000" stroke-width="3"/></svg>
